<svg clip-rule="evenodd" fill-rule="evenodd" height="7.111in" image-rendering="optimizeQuality" shape-rendering="geometricPrecision" text-rendering="geometricPrecision" viewBox="0 0 7111 7111" width="7.111in" xmlns="http://www.w3.org/2000/svg"><g id="Layer_x0020_1"><path d="m1266 2509c-23 0-44-9-60-25l-237-237c-32-32-32-86 0-119l559-558c33-33 86-33 119 0l236 237c36 36 32 95-8 126-205 155-387 337-542 542-16 21-42 34-67 34z" fill="#ffb800"/><path d="m754 2482c-62 0-124-23-170-70l-188-188c-94-94-94-247 0-340l887-887c94-94 247-94 340 0l188 187c94 94 94 247 0 341l-887 887c-47 47-108 70-170 70z" fill="#d62966"/><path d="m5845 2509c-26 0-51-12-67-34-155-204-337-387-542-542-40-30-44-90-8-126l236-237c33-33 86-33 119 0l559 559c32 32 32 86 0 119l-237 236c-16 16-37 25-60 25z" fill="#ffb800"/><path d="m4044 1411c-5 0-10 0-14-1-313-54-636-54-949 0-51 8-98-31-98-83v-735c0-46 38-84 84-84h977c46 0 84 38 84 84v735c0 47-38 84-84 84z" fill="#ffb800"/><path d="m3555 7111c-1629 0-2955-1325-2955-2955 0-1629 1326-2955 2955-2955 1630 0 2955 1326 2955 2955 0 1630-1325 2955-2955 2955zm0-5429c-1364 0-2473 1110-2473 2474s1109 2474 2473 2474c1365 0 2474-1110 2474-2474s-1109-2474-2474-2474z" fill="#d62966"/><path d="m6357 2482c-64 0-125-25-170-70l-887-887c-94-94-94-247 0-341l188-187c94-94 246-94 340 0l887 886c94 94 94 247 0 341l-188 188c-45 45-105 70-170 70z" fill="#d62966"/><path d=""/><path d="m4183 747h-1254c-133 0-241-108-241-241v-265c0-133 108-241 241-241h1254c132 0 240 108 240 241v265c0 133-108 241-240 241z" fill="#d62966"/><path d="m3555 1682c-1364 0-2473 1110-2473 2474s1109 2474 2473 2474c1365 0 2474-1110 2474-2474s-1109-2474-2474-2474z" fill="#eef0fc"/><g fill="#f04c82"><path d="m1910 4240h-633c-47 0-84-37-84-84 0-46 37-84 84-84h633c46 0 84 38 84 84 0 47-38 84-84 84z"/><path d="m3555 2595c-46 0-84-38-84-84v-634c0-46 38-84 84-84 47 0 85 38 85 84v634c0 46-38 84-85 84z"/><path d="m3555 6519c-46 0-84-38-84-84v-633c0-47 38-85 84-85 47 0 85 38 85 85v633c0 46-38 84-85 84z"/><path d="m4695 6213c-29 0-58-15-73-42l-157-271c-23-40-9-92 31-115s92-9 115 31l157 271c32 57-9 126-73 126z"/><path d="m2416 6213c-64 0-105-70-73-126l157-271c23-40 75-54 115-31s54 75 31 115l-157 271c-15 27-44 42-73 42z"/><path d="m5834 4240h-633c-46 0-84-37-84-84 0-46 38-84 84-84h633c47 0 84 38 84 84 0 47-37 84-84 84z"/><path d="m4538 2538c-64 0-105-70-73-126l157-271c23-40 74-54 115-31 40 23 54 75 31 115l-157 271c-16 27-44 42-73 42z"/><path d="m5257 3258c-85 0-116-114-42-157l272-157c40-23 92-9 115 31s9 92-31 115l-271 157c-14 7-28 11-43 11z"/><path d="m5529 5380c-15 0-29-4-42-12l-272-156c-40-24-54-75-31-115 24-41 75-54 116-31l271 156c74 43 43 158-42 158z"/><path d="m1582 5380c-85 0-116-114-42-158l272-156c40-23 91-10 115 31 23 40 9 91-31 115l-272 156c-13 8-27 12-42 12z"/><path d="m1854 3258c-15 0-29-4-42-11l-272-157c-40-23-54-75-31-115 24-40 75-54 115-31l272 157c74 43 43 157-42 157z"/><path d="m2573 2538c-29 0-57-15-73-42l-157-271c-23-40-9-92 31-115s92-9 115 31l157 271c32 57-9 126-73 126z"/><path d="m4963 4436c-16 0-1041-142-1150-157-46-7-79-49-72-95 6-46 49-78 94-72l1139 156c46 7 79 49 72 95-6 43-42 73-83 73zm-1408-467c-46 0-84-38-84-84v-824c0-46 38-84 84-84 47 0 85 38 85 84v824c0 46-38 84-85 84z"/></g><path d="m3555 4512c-195 0-355-160-355-356s160-355 355-355c196 0 356 159 356 355s-160 356-356 356z" fill="#ffb800"/><path d="m3555 6798c-1456 0-2642-1185-2642-2642s1186-2642 2642-2642c1457 0 2643 1185 2643 2642s-1186 2642-2643 2642zm0-4890c1242 0 2249 1006 2249 2248s-1007 2249-2249 2249c-1241 0-2248-1007-2248-2249s1007-2248 2248-2248z" fill="#be2153"/></g></svg>